<svg width="56" height="56" viewBox="0 0 56 56" fill="none" xmlns="http://www.w3.org/2000/svg">
<path fill-rule="evenodd" clip-rule="evenodd" d="M28 6.22222C15.9725 6.22222 6.22222 15.9725 6.22222 28C6.22222 40.0275 15.9725 49.7778 28 49.7778C40.0275 49.7778 49.7778 40.0275 49.7778 28C49.7778 15.9725 40.0275 6.22222 28 6.22222ZM0 28C0 12.536 12.536 0 28 0C43.464 0 56 12.536 56 28C56 43.464 43.464 56 28 56C12.536 56 0 43.464 0 28Z" fill="#6CB69B"/>
<path d="M28 3C31.283 3 34.5339 3.64664 37.5671 4.90301C40.6002 6.15938 43.3562 8.00087 45.6777 10.3223C47.9991 12.6438 49.8406 15.3998 51.097 18.4329C52.3534 21.4661 53 24.717 53 28C53 31.2831 52.3534 34.534 51.097 37.5671C49.8406 40.6002 47.9991 43.3562 45.6777 45.6777C43.3562 47.9991 40.6002 49.8406 37.5671 51.097C34.5339 52.3534 31.283 53 28 53" stroke="white" stroke-width="6"/>
<path d="M22.5259 32.144C21.8219 32.144 21.2019 31.952 20.6659 31.568C20.1299 31.184 19.7139 30.644 19.4179 29.948C19.1219 29.244 18.9739 28.436 18.9739 27.524C18.9739 26.612 19.1219 25.808 19.4179 25.112C19.7139 24.416 20.1259 23.876 20.6539 23.492C21.1899 23.108 21.8099 22.916 22.5139 22.916C23.2179 22.916 23.8379 23.108 24.3739 23.492C24.9099 23.876 25.3259 24.416 25.6219 25.112C25.9179 25.808 26.0659 26.612 26.0659 27.524C26.0659 28.436 25.9179 29.244 25.6219 29.948C25.3259 30.644 24.9099 31.184 24.3739 31.568C23.8459 31.952 23.2299 32.144 22.5259 32.144ZM20.1499 27.524C20.1499 28.228 20.2459 28.848 20.4379 29.384C20.6379 29.912 20.9179 30.324 21.2779 30.62C21.6379 30.908 22.0539 31.052 22.5259 31.052C22.9979 31.052 23.4099 30.908 23.7619 30.62C24.1219 30.324 24.3979 29.912 24.5899 29.384C24.7899 28.848 24.8899 28.228 24.8899 27.524C24.8899 26.82 24.7899 26.204 24.5899 25.676C24.3979 25.148 24.1219 24.74 23.7619 24.452C23.4019 24.156 22.9859 24.008 22.5139 24.008C22.0419 24.008 21.6259 24.156 21.2659 24.452C20.9139 24.74 20.6379 25.148 20.4379 25.676C20.2459 26.204 20.1499 26.82 20.1499 27.524ZM35.8655 23.06H37.1975L29.9015 32H28.5695L35.8655 23.06ZM27.5615 25.256C27.5615 24.832 27.6655 24.44 27.8735 24.08C28.0815 23.72 28.3655 23.436 28.7255 23.228C29.0855 23.02 29.4815 22.916 29.9135 22.916C30.3375 22.916 30.7255 23.02 31.0775 23.228C31.4375 23.436 31.7215 23.72 31.9295 24.08C32.1375 24.44 32.2415 24.832 32.2415 25.256C32.2415 25.68 32.1375 26.072 31.9295 26.432C31.7215 26.792 31.4375 27.076 31.0775 27.284C30.7255 27.492 30.3375 27.596 29.9135 27.596C29.4815 27.596 29.0855 27.492 28.7255 27.284C28.3655 27.076 28.0815 26.792 27.8735 26.432C27.6655 26.072 27.5615 25.68 27.5615 25.256ZM28.5815 25.256C28.5815 25.616 28.7095 25.932 28.9655 26.204C29.2215 26.476 29.5375 26.612 29.9135 26.612C30.2895 26.612 30.6015 26.476 30.8495 26.204C31.0975 25.932 31.2215 25.616 31.2215 25.256C31.2215 24.896 31.0975 24.58 30.8495 24.308C30.6015 24.028 30.2895 23.888 29.9135 23.888C29.6655 23.888 29.4375 23.952 29.2295 24.08C29.0295 24.208 28.8695 24.38 28.7495 24.596C28.6375 24.804 28.5815 25.024 28.5815 25.256ZM33.4295 29.804C33.4295 29.38 33.5335 28.988 33.7415 28.628C33.9495 28.268 34.2335 27.984 34.5935 27.776C34.9535 27.568 35.3495 27.464 35.7815 27.464C36.2055 27.464 36.5935 27.568 36.9455 27.776C37.3055 27.984 37.5895 28.268 37.7975 28.628C38.0055 28.988 38.1095 29.38 38.1095 29.804C38.1095 30.228 38.0055 30.62 37.7975 30.98C37.5895 31.34 37.3055 31.624 36.9455 31.832C36.5935 32.04 36.2055 32.144 35.7815 32.144C35.3495 32.144 34.9535 32.04 34.5935 31.832C34.2335 31.624 33.9495 31.34 33.7415 30.98C33.5335 30.62 33.4295 30.228 33.4295 29.804ZM34.4495 29.804C34.4495 30.164 34.5775 30.48 34.8335 30.752C35.0895 31.024 35.4055 31.16 35.7815 31.16C36.1575 31.16 36.4695 31.024 36.7175 30.752C36.9655 30.48 37.0895 30.164 37.0895 29.804C37.0895 29.444 36.9655 29.128 36.7175 28.856C36.4695 28.576 36.1575 28.436 35.7815 28.436C35.5335 28.436 35.3055 28.5 35.0975 28.628C34.8975 28.756 34.7375 28.928 34.6175 29.144C34.5055 29.352 34.4495 29.572 34.4495 29.804Z" fill="white"/>
</svg>
