<svg width="22" height="19" viewBox="0 0 22 19" fill="none" xmlns="http://www.w3.org/2000/svg">
<path d="M1.0098e-06 12.4998C-0.000614785 11.3952 0.280422 10.3088 0.816552 9.34307C1.35268 8.37737 2.1262 7.56432 3.064 6.98076C3.31151 5.05085 4.2538 3.27727 5.71452 1.99192C7.17524 0.706575 9.05428 -0.00244141 11 -0.00244141C12.9457 -0.00244141 14.8248 0.706575 16.2855 1.99192C17.7462 3.27727 18.6885 5.05085 18.936 6.98076C20.0992 7.70445 21.0041 8.77717 21.5213 10.0457C22.0385 11.3143 22.1417 12.7139 21.8161 14.0446C21.4906 15.3753 20.7528 16.5692 19.7083 17.4556C18.6638 18.3421 17.366 18.8759 16 18.9808L6 18.9998C2.644 18.7258 1.0098e-06 15.9218 1.0098e-06 12.4998ZM15.848 16.9868C16.7938 16.914 17.6925 16.5443 18.4156 15.9303C19.1387 15.3163 19.6493 14.4895 19.8745 13.568C20.0996 12.6465 20.0278 11.6774 19.6692 10.7991C19.3107 9.9209 18.6837 9.17842 17.878 8.67776L17.071 8.17476L16.951 7.23276C16.7641 5.78645 16.0569 4.4577 14.9616 3.49485C13.8663 2.532 12.4578 2.00095 10.9995 2.00095C9.54116 2.00095 8.13272 2.532 7.03742 3.49485C5.94213 4.4577 5.23493 5.78645 5.048 7.23276L4.928 8.17476L4.123 8.67776C3.3173 9.17836 2.69038 9.92075 2.3318 10.7989C1.97321 11.6771 1.90129 12.6461 2.12631 13.5676C2.35133 14.4891 2.86177 15.3159 3.58475 15.9299C4.30773 16.544 5.20625 16.9139 6.152 16.9868L6.325 16.9998H15.675L15.848 16.9868ZM12 10.9998V14.9998H10V10.9998H7L11 5.99976L15 10.9998H12Z" fill="#818181"/>
</svg>
