<svg width="106" height="128" viewBox="0 0 106 128" fill="none" xmlns="http://www.w3.org/2000/svg">
<path d="M103.553 17.1074V95.1481H35.3696V0.536621H103.525L103.553 17.1074Z" fill="white"/>
<path d="M103.03 17.1074V91.9685C103.03 92.9722 102.948 94.0159 103.03 95.0172C103.034 95.0602 103.03 95.1049 103.03 95.1481L103.553 94.6226H38.1419C37.2707 94.6226 36.3532 94.5395 35.4848 94.6226C35.4472 94.6262 35.4075 94.6226 35.3696 94.6226L35.8926 95.1481V4.37713C35.8926 3.15985 35.9706 1.91291 35.8926 0.697431C35.8892 0.644298 35.8926 0.589891 35.8926 0.536566L35.3696 1.06203H100.749C101.621 1.06203 102.54 1.14545 103.409 1.06203C103.447 1.05841 103.487 1.06203 103.525 1.06203L103.002 0.536566L103.011 6.12565L103.027 15.0451L103.03 17.1074C103.031 17.7836 104.077 17.7848 104.076 17.1074L104.067 11.5183L104.051 2.59886L104.048 0.536566C104.044 0.248091 103.812 0.0152414 103.525 0.0110971H38.1457C37.2601 0.0110971 36.3704 -0.0138714 35.4851 0.0110971C35.4468 0.0121785 35.4081 0.0110971 35.3698 0.0110971C35.0826 0.0152037 34.8509 0.248076 34.8468 0.536566V91.3076C34.8468 92.5334 34.8235 93.7617 34.8468 94.9873C34.8478 95.0409 34.8468 95.0946 34.8468 95.1483C34.8509 95.4368 35.0826 95.6696 35.3698 95.6737H100.781C101.666 95.6737 102.554 95.6987 103.438 95.6737C103.477 95.6727 103.515 95.6737 103.553 95.6737C103.841 95.6696 104.072 95.4368 104.076 95.1483V20.287C104.076 19.2719 104.101 18.2532 104.076 17.2383C104.075 17.1947 104.076 17.151 104.076 17.1074C104.076 16.4312 103.03 16.4301 103.03 17.1074Z" fill="#D4D4D4"/>
<path d="M96.5808 23.9385V101.979H28.397V7.36768H96.5521L96.5808 23.9385Z" fill="white"/>
<path d="M96.0577 23.9386V98.7997C96.0577 99.8035 95.9756 100.847 96.0577 101.848C96.0613 101.891 96.0577 101.936 96.0577 101.979L96.5808 101.454H31.1694C30.2982 101.454 29.3807 101.371 28.5123 101.454C28.4746 101.457 28.435 101.454 28.3971 101.454L28.92 101.979V11.2083C28.92 9.99103 28.998 8.7441 28.92 7.52862C28.9166 7.47546 28.92 7.42105 28.92 7.36761L28.3971 7.89308H93.7761C94.6484 7.89308 95.5673 7.97651 96.4367 7.89308C96.4744 7.88945 96.5141 7.89308 96.5521 7.89308L96.0291 7.36761L96.0387 12.9567L96.0541 21.8762L96.0576 23.9385C96.0588 24.6146 97.1047 24.6158 97.1035 23.9385L97.094 18.3494L97.0786 9.4299L97.075 7.36761C97.0709 7.07914 96.8392 6.84629 96.5521 6.84216H31.173C30.2874 6.84216 29.3978 6.81717 28.5124 6.84216C28.474 6.84324 28.4355 6.84216 28.3971 6.84216C28.11 6.84627 27.8782 7.07913 27.8741 7.36761V98.1386C27.8741 99.3644 27.8508 100.593 27.8741 101.818C27.8752 101.872 27.8741 101.926 27.8741 101.979C27.8782 102.268 28.11 102.501 28.3971 102.505H93.8085C94.6929 102.505 95.5814 102.53 96.4656 102.505C96.5039 102.504 96.5424 102.505 96.5808 102.505C96.8679 102.501 97.0997 102.268 97.1038 101.979V27.1182C97.1038 26.103 97.1285 25.0844 97.1038 24.0694C97.1027 24.0259 97.1038 23.9822 97.1038 23.9386C97.1036 23.2624 96.0577 23.2612 96.0577 23.9386Z" fill="#D4D4D4"/>
<ellipse cx="52.9977" cy="115.92" rx="52.4791" ry="11.535" fill="black"/>
<path d="M104.954 115.92C104.931 116.518 104.709 117.091 104.323 117.547C103.794 118.176 103.171 118.718 102.476 119.152C100.304 120.569 97.7892 121.447 95.3247 122.192C87.3886 124.59 79.0105 125.599 70.775 126.251C60.1446 127.082 49.4696 127.166 38.8275 126.504C30.1336 125.969 21.3384 125.033 12.8916 122.816C10.1468 122.096 7.37523 121.249 4.85075 119.927C3.98105 119.495 3.16667 118.959 2.42544 118.331C1.8927 117.857 1.38985 117.266 1.1929 116.715C0.976252 116.191 0.982204 115.6 1.20938 115.08C1.41585 114.538 1.93271 113.939 2.47284 113.467C4.17971 111.975 6.43935 111.086 8.54548 110.341C11.8248 109.226 15.1822 108.358 18.5898 107.743C22.9071 106.913 27.2706 106.334 31.6446 105.905C42.1843 104.9 52.7813 104.643 63.357 105.135C72.4687 105.535 81.6549 106.381 90.5656 108.404C93.605 109.094 96.6599 109.912 99.5303 111.147C101.229 111.878 103.273 112.87 104.354 114.335C104.533 114.58 104.683 114.845 104.803 115.124C104.908 115.376 104.96 115.647 104.954 115.92C104.96 116.596 106.006 116.597 106 115.92C105.985 114.206 104.638 112.915 103.334 112.003C101.19 110.503 98.6295 109.581 96.1548 108.804C92.5617 107.715 88.8993 106.872 85.1928 106.279C80.5684 105.494 75.9027 104.955 71.229 104.574C60.3239 103.698 49.3702 103.609 38.4524 104.308C29.6127 104.867 20.6435 105.83 12.0706 108.154C9.28302 108.91 6.46009 109.812 3.9226 111.221C2.41826 112.056 0.721366 113.21 0.153734 114.933C-0.34887 116.459 0.450059 117.923 1.54777 118.948C3.25148 120.539 5.52216 121.498 7.67375 122.297C10.9345 123.507 14.3386 124.324 17.7444 124.999C22.136 125.869 26.58 126.473 31.0324 126.924C41.8696 127.992 52.7698 128.265 63.6466 127.743C72.9278 127.322 82.3018 126.447 91.3674 124.329C94.4562 123.607 97.5426 122.735 100.443 121.43C102.24 120.622 104.209 119.584 105.349 117.905C105.757 117.323 105.983 116.632 106 115.92C106.006 115.243 104.96 115.243 104.954 115.92Z" fill="black"/>
<ellipse cx="52.9978" cy="115.411" rx="41.6746" ry="6.9549" fill="black"/>
<path d="M94.1499 115.411C94.1494 115.457 94.1455 115.502 94.142 115.548C94.1559 115.365 94.1456 115.527 94.1304 115.572C94.1154 115.616 94.1028 115.662 94.0881 115.707C94.062 115.787 94.1051 115.669 94.1081 115.663C94.0946 115.695 94.0795 115.726 94.0628 115.757C94.0113 115.843 93.9617 115.928 93.9027 116.01C93.9953 115.882 93.8821 116.034 93.8555 116.063C93.8059 116.116 93.7572 116.169 93.7052 116.22C93.5321 116.399 93.3356 116.554 93.1212 116.68C92.836 116.864 92.54 117.032 92.2348 117.18C90.4995 118.04 88.4978 118.552 86.5831 118.991C80.2153 120.453 73.6339 121.04 67.1265 121.431C58.6825 121.933 50.2179 121.984 41.7684 121.585C34.8915 121.265 27.9613 120.718 21.1986 119.372C19.0153 118.938 16.8141 118.431 14.7377 117.612C14.0726 117.36 13.4355 117.039 12.8368 116.654C12.626 116.528 12.4335 116.373 12.2648 116.194C12.2222 116.151 12.1821 116.107 12.1411 116.063C12.1178 116.038 12.0008 115.881 12.0938 116.01C12.0305 115.92 11.9724 115.827 11.9201 115.73C11.8481 115.6 11.9296 115.773 11.9084 115.707C11.8939 115.662 11.8811 115.616 11.8661 115.572C11.8498 115.523 11.8412 115.368 11.8545 115.548C11.8504 115.493 11.8487 115.439 11.8469 115.384C11.846 115.355 11.8633 115.215 11.849 115.317C11.8343 115.421 11.8628 115.263 11.8697 115.237C11.8807 115.196 11.8951 115.156 11.9084 115.115C11.9419 115.013 11.8523 115.23 11.9006 115.133C11.9139 115.106 11.9254 115.078 11.9407 115.052C11.9672 115.008 11.9935 114.963 12.0197 114.919C12.04 114.884 12.1497 114.744 12.0526 114.865C12.1267 114.773 12.2064 114.685 12.2912 114.602C12.3857 114.511 12.4849 114.424 12.5883 114.342C12.4923 114.419 12.6618 114.289 12.6882 114.27C12.7497 114.226 12.812 114.184 12.8752 114.143C14.3208 113.194 16.0353 112.704 17.7063 112.254C23.6719 110.651 29.927 110.036 36.0676 109.58C44.4448 108.974 52.8482 108.82 61.2418 109.118C68.4302 109.359 75.6586 109.853 82.7552 111.073C85.191 111.457 87.5962 112.015 89.9525 112.745C90.7518 112.992 91.5313 113.3 92.2841 113.667C92.5928 113.819 92.8915 113.991 93.1786 114.181C93.2343 114.218 93.289 114.257 93.3438 114.296C93.3789 114.321 93.4134 114.347 93.4475 114.373C93.4332 114.362 93.3662 114.308 93.4404 114.368C93.5514 114.458 93.6572 114.553 93.7575 114.655C93.795 114.693 93.8302 114.734 93.8668 114.773C93.929 114.84 93.9534 114.884 93.9123 114.825C93.969 114.907 94.0215 114.992 94.0696 115.079C94.1433 115.21 94.0764 115.08 94.088 115.115C94.1027 115.16 94.1153 115.206 94.1303 115.251C94.1447 115.293 94.1671 115.462 94.1419 115.274C94.1473 115.32 94.1499 115.366 94.1498 115.411C94.1576 116.087 95.2035 116.089 95.1957 115.411C95.1815 114.189 93.9879 113.381 93.028 112.871C91.2505 111.926 89.2505 111.386 87.3047 110.922C80.8335 109.378 74.115 108.773 67.4912 108.363C58.8258 107.833 50.1381 107.779 41.4669 108.201C34.4367 108.538 27.3406 109.11 20.4357 110.535C18.2732 110.981 16.0917 111.504 14.0504 112.365C12.937 112.834 11.5046 113.476 10.9737 114.656C10.4612 115.796 11.2335 116.788 12.1246 117.434C13.5263 118.45 15.3091 118.986 16.9521 119.45C19.5958 120.165 22.2815 120.713 24.9935 121.09C28.527 121.62 32.0838 121.989 35.6456 122.262C44.2398 122.901 52.8625 123.063 61.4745 122.748C68.8202 122.494 76.2085 121.972 83.4548 120.69C85.9039 120.297 88.3186 119.713 90.677 118.942C92.0244 118.477 93.6369 117.906 94.6065 116.793C94.9624 116.419 95.1717 115.928 95.1958 115.411C95.2036 114.735 94.1577 114.734 94.1499 115.411Z" fill="black"/>
<path d="M89.6563 115.629L98.3385 110.007C98.3385 110.007 87.1966 106.638 77.6941 106.518C73.5453 108.991 89.6563 115.629 89.6563 115.629Z" fill="black" stroke="black" stroke-width="1.4577"/>
<path d="M89.6562 31.5214V115.658H16.147V13.6562H72.2681L89.6562 31.5214Z" fill="white"/>
<path d="M89.1333 31.5216V112.23C89.1333 113.311 89.0395 114.439 89.1333 115.517C89.1373 115.563 89.1333 115.611 89.1333 115.658L89.6562 115.133H19.1357C18.1984 115.133 17.2049 115.037 16.2711 115.133C16.2306 115.137 16.1877 115.133 16.1469 115.133L16.6699 115.658V17.7969C16.6699 16.4857 16.7587 15.1388 16.6699 13.8298C16.666 13.7726 16.6699 13.7138 16.6699 13.6564L16.1469 14.1818H69.9772C70.686 14.1818 71.4674 14.2756 72.1718 14.1818C72.2039 14.1798 72.236 14.1798 72.268 14.1818L71.8982 14.0279L77.802 20.0936L87.1301 29.6775L89.2865 31.8932C89.7579 32.3776 90.4972 31.6342 90.026 31.1501L85.84 26.8491L77.8426 18.6323C76.1417 16.8847 74.4794 15.0857 72.7336 13.3831C72.4729 13.129 72.2317 13.1308 71.8989 13.1308H20.7455C19.2779 13.1308 17.8086 13.1101 16.341 13.1308C16.2764 13.1317 16.2116 13.1308 16.1469 13.1308C15.8598 13.1349 15.6281 13.3678 15.624 13.6563V111.517C15.624 112.839 15.5988 114.163 15.624 115.485C15.6251 115.542 15.624 115.6 15.624 115.658C15.6281 115.946 15.8598 116.179 16.1469 116.183H86.6675C87.621 116.183 88.5789 116.21 89.5321 116.183C89.5734 116.182 89.6149 116.183 89.6562 116.183C89.9433 116.179 90.1751 115.946 90.1792 115.658V34.9496C90.1792 33.8551 90.2058 32.7569 90.1792 31.6627C90.178 31.6157 90.1792 31.5686 90.1792 31.5216C90.1792 30.8453 89.1333 30.8442 89.1333 31.5216Z" fill="#D4D4D4"/>
<path d="M89.656 31.6857H72.2915V13.6562L89.656 31.6857Z" fill="black"/>
<path d="M89.6559 31.1599H72.2915L72.8144 31.6854V13.656L71.9217 14.0275L73.6512 15.8232L77.8037 20.1347L82.8049 25.3274L87.1471 29.836C87.8479 30.5637 88.5249 31.3301 89.2568 32.0265C89.267 32.0361 89.2764 32.0468 89.2861 32.0569C89.7551 32.5438 90.4942 31.8003 90.0257 31.3139L88.2962 29.5181L84.1438 25.2067L79.1426 20.0139L74.8003 15.5054C74.0995 14.7778 73.4225 14.0114 72.6906 13.315C72.6804 13.3053 72.671 13.2946 72.6613 13.2845C72.5098 13.1398 72.2878 13.0983 72.0947 13.1786C71.9016 13.259 71.7738 13.4461 71.7686 13.6561V31.6855C71.7726 31.974 72.0044 32.2068 72.2915 32.2109H89.6559C90.3289 32.2109 90.33 31.1599 89.6559 31.1599Z" fill="black"/>
<path d="M36.6331 36.2095H80.1174C80.704 36.2095 81.2933 36.2258 81.8798 36.2095C81.9049 36.2088 81.93 36.2095 81.9552 36.2095C82.0959 36.2044 82.2074 36.0883 82.2074 35.9467C82.2074 35.8052 82.0959 35.6891 81.9552 35.684H38.4709C37.8843 35.684 37.295 35.6677 36.7085 35.684C36.6834 35.6847 36.6583 35.684 36.6331 35.684C36.4924 35.6891 36.3809 35.8052 36.3809 35.9467C36.3809 36.0883 36.4924 36.2044 36.6331 36.2095Z" fill="black"/>
<path d="M21.8168 43.5657H79.5144C80.2935 43.5657 81.0743 43.5805 81.8534 43.5657C81.8875 43.5651 81.9216 43.5657 81.9557 43.5657C82.0965 43.5607 82.208 43.4445 82.208 43.303C82.208 43.1615 82.0965 43.0453 81.9557 43.0403H24.258C23.4789 43.0403 22.6981 43.0255 21.919 43.0403C21.8849 43.0409 21.8508 43.0403 21.8167 43.0403C21.676 43.0453 21.5645 43.1615 21.5645 43.303C21.5645 43.4445 21.676 43.5607 21.8167 43.5657H21.8168Z" fill="black"/>
<path d="M21.8168 50.9222H79.5144C80.2935 50.9222 81.0743 50.937 81.8534 50.9222C81.8875 50.9215 81.9216 50.9222 81.9557 50.9222C82.0965 50.9171 82.208 50.801 82.208 50.6594C82.208 50.5179 82.0965 50.4018 81.9557 50.3967H24.258C23.4789 50.3967 22.6981 50.3819 21.919 50.3967C21.8849 50.3974 21.8508 50.3967 21.8167 50.3967C21.676 50.4018 21.5645 50.5179 21.5645 50.6594C21.5645 50.801 21.676 50.9171 21.8167 50.9222H21.8168Z" fill="black"/>
<path d="M21.8168 58.2786H79.5144C80.2935 58.2786 81.0743 58.2934 81.8534 58.2786C81.8875 58.278 81.9216 58.2786 81.9557 58.2786C82.0965 58.2736 82.208 58.1574 82.208 58.0159C82.208 57.8743 82.0965 57.7582 81.9557 57.7532H24.258C23.4789 57.7532 22.6981 57.7384 21.919 57.7532C21.8849 57.7538 21.8508 57.7532 21.8167 57.7532C21.676 57.7582 21.5645 57.8743 21.5645 58.0159C21.5645 58.1574 21.676 58.2736 21.8167 58.2786H21.8168Z" fill="black"/>
<path d="M21.8168 65.6351H79.5144C80.2935 65.6351 81.0743 65.6499 81.8534 65.6351C81.8875 65.6344 81.9216 65.6351 81.9557 65.6351C82.0965 65.63 82.208 65.5139 82.208 65.3723C82.208 65.2308 82.0965 65.1147 81.9557 65.1096H24.258C23.4789 65.1096 22.6981 65.0948 21.919 65.1096C21.8849 65.1103 21.8508 65.1096 21.8167 65.1096C21.676 65.1147 21.5645 65.2308 21.5645 65.3723C21.5645 65.5139 21.676 65.63 21.8167 65.6351H21.8168Z" fill="black"/>
<path d="M21.8168 72.9915H79.5144C80.2935 72.9915 81.0743 73.0063 81.8534 72.9915C81.8875 72.9909 81.9216 72.9915 81.9557 72.9915C82.0965 72.9865 82.208 72.8703 82.208 72.7288C82.208 72.5872 82.0965 72.4711 81.9557 72.4661H24.258C23.4789 72.4661 22.6981 72.4512 21.919 72.4661C21.8849 72.4667 21.8508 72.4661 21.8167 72.4661C21.676 72.4711 21.5645 72.5872 21.5645 72.7288C21.5645 72.8703 21.676 72.9865 21.8167 72.9915H21.8168Z" fill="black"/>
<path d="M21.8168 80.3475H79.5144C80.2935 80.3475 81.0743 80.3623 81.8534 80.3475C81.8875 80.3468 81.9216 80.3475 81.9557 80.3475C82.0965 80.3424 82.208 80.2263 82.208 80.0847C82.208 79.9432 82.0965 79.8271 81.9557 79.822H24.258C23.4789 79.822 22.6981 79.8072 21.919 79.822C21.8849 79.8227 21.8508 79.822 21.8167 79.822C21.676 79.8271 21.5645 79.9432 21.5645 80.0847C21.5645 80.2263 21.676 80.3424 21.8167 80.3475H21.8168Z" fill="black"/>
<path d="M21.8168 87.7039H79.5144C80.2935 87.7039 81.0743 87.7187 81.8534 87.7039C81.8875 87.7033 81.9216 87.7039 81.9557 87.7039C82.0965 87.6989 82.208 87.5827 82.208 87.4412C82.208 87.2997 82.0965 87.1835 81.9557 87.1785H24.258C23.4789 87.1785 22.6981 87.1637 21.919 87.1785C21.8849 87.1791 21.8508 87.1785 21.8167 87.1785C21.676 87.1835 21.5645 87.2997 21.5645 87.4412C21.5645 87.5827 21.676 87.6989 21.8167 87.7039H21.8168Z" fill="black"/>
<path d="M21.8166 95.0603H79.5142C80.2934 95.0603 81.0741 95.0751 81.8533 95.0603C81.8873 95.0597 81.9215 95.0603 81.9555 95.0603C82.0964 95.0555 82.2081 94.9393 82.2081 94.7976C82.2081 94.656 82.0964 94.5398 81.9555 94.5349H24.2578C23.4787 94.5349 22.6979 94.5201 21.9188 94.5349C21.8848 94.5355 21.8506 94.5349 21.8166 94.5349C21.6757 94.5398 21.564 94.656 21.564 94.7976C21.564 94.9393 21.6757 95.0555 21.8166 95.0603H21.8166Z" fill="black"/>
<path d="M21.8166 102.417H64.794C65.375 102.417 65.9584 102.433 66.5393 102.417C66.5647 102.416 66.5902 102.417 66.6156 102.417C66.7565 102.412 66.8682 102.296 66.8682 102.154C66.8682 102.013 66.7565 101.897 66.6156 101.892H23.6382C23.0572 101.892 22.4737 101.876 21.8929 101.892C21.8675 101.892 21.842 101.892 21.8166 101.892C21.6757 101.897 21.564 102.013 21.564 102.154C21.564 102.296 21.6757 102.412 21.8166 102.417Z" fill="black"/>
<ellipse cx="52.8446" cy="67.9993" rx="24.5785" ry="24.6965" fill="#389B48"/>
<path d="M75.8913 46.2433C73.824 44.2529 70.5629 44.2529 68.4956 46.2433C62.9389 51.3544 57.982 57.2441 53.5337 63.3338C53.0203 64.0367 52.5169 64.7467 52.0233 65.4638C50.6107 63.9185 49.1536 62.4159 47.6522 60.9561C45.6866 59.0408 42.1873 58.8429 40.2566 60.9561C38.3645 63.0272 38.1586 66.3428 40.2566 68.3872C41.3128 69.4163 42.3421 70.4745 43.3581 71.5435C44.2787 72.5122 45.1829 73.4964 46.0705 74.4961C46.5593 75.0496 47.0402 75.61 47.5131 76.1774C47.7292 76.4377 47.943 76.7 48.1545 76.9641C48.2574 77.093 48.3584 77.2237 48.4615 77.3526C48.5521 77.4658 48.5429 77.4508 48.4871 77.3764C49.5663 78.6777 50.8473 79.5596 52.6701 79.5596C54.5277 79.5568 56.2452 78.5668 57.1855 76.957C58.6205 74.4101 60.1922 71.9434 61.8935 69.5679C62.2804 69.0248 62.6728 68.4859 63.0708 67.9509C63.2671 67.6868 63.4648 67.4237 63.6637 67.1616L63.6736 67.1486C63.7204 67.0881 63.761 67.0357 63.7795 67.012C64.576 65.9919 65.3897 64.9857 66.2204 63.9933C68.7708 60.9429 71.4622 58.0059 74.2906 55.2135C74.8172 54.6937 75.3465 54.1752 75.8911 53.6742C77.9144 51.8134 77.9098 48.1051 75.8913 46.2433Z" fill="#F5F5F5"/>
</svg>
